<svg
  width="16"
  height="16"
  viewBox="0 0 16 16"
  fill="none"
  xmlns="http://www.w3.org/2000/svg"
>
  <path d="M1.39634 0.0654025C0.746703 0.238436 0.239291 0.757537 0.0663095 1.41507C-0.0221032 1.74575 -0.0221032 14.258 0.0663095 14.5887C0.239291 15.2539 0.750547 15.7692 1.41172 15.9422C1.61161 15.9922 2.41117 15.9999 8.00423 15.9999C14.9427 15.9999 14.5583 16.0114 15.0081 15.7846C15.281 15.6461 15.6193 15.3116 15.7653 15.0424C16.0152 14.5733 15.9998 15.0117 15.9998 8.00189C15.9998 2.40713 15.9921 1.60733 15.9422 1.40738C15.7692 0.746002 15.2541 0.234591 14.5891 0.0615573C14.2623 -0.0230371 1.7154 -0.0191919 1.39634 0.0654025ZM4.12176 8.00189V14.7733L2.8763 14.7617C1.68465 14.7502 1.62314 14.7464 1.5232 14.6695C1.46554 14.6272 1.38097 14.5426 1.33868 14.4849C1.25796 14.3811 1.25796 14.3734 1.24643 8.10571C1.24258 4.65272 1.24643 1.77651 1.25796 1.7073C1.28487 1.55349 1.44632 1.35739 1.60392 1.28817C1.69233 1.24972 2.00754 1.23819 2.92242 1.23434H4.12176V8.00189ZM14.4853 1.33432C14.5429 1.37661 14.6275 1.46121 14.6698 1.51889L14.7505 1.62271V8.00189V14.3811L14.6698 14.4849C14.6275 14.5426 14.5429 14.6272 14.4853 14.6695C14.3815 14.7502 14.3584 14.7502 9.86474 14.7617L5.35185 14.7694V8.00189V1.23434L9.86474 1.24203C14.3584 1.25357 14.3815 1.25357 14.4853 1.33432Z" fill="white" />
</svg>
