<svg
  width="16"
  height="16"
  viewBox="0 0 16 16"
  fill="none"
  xmlns="http://www.w3.org/2000/svg"
>
  <path d="M14.6037 0.065402C15.2533 0.238437 15.7607 0.757537 15.9337 1.41507C16.0221 1.74575 16.0221 14.258 15.9337 14.5887C15.7607 15.2539 15.2495 15.7692 14.5883 15.9422C14.3884 15.9922 13.5888 15.9999 7.99577 15.9999C1.05729 15.9999 1.4417 16.0114 0.991944 15.7846C0.719018 15.6461 0.380743 15.3116 0.234671 15.0424C-0.015192 14.5733 0.000184059 15.0117 0.000184059 8.00189C0.000184059 2.40713 0.00787258 1.60733 0.0578451 1.40738C0.230826 0.746001 0.745926 0.234591 1.41094 0.0615568C1.73769 -0.023037 14.2846 -0.0191917 14.6037 0.065402ZM11.8782 8.00189V14.7733L13.1237 14.7617C14.3154 14.7502 14.3769 14.7464 14.4768 14.6695C14.5345 14.6272 14.619 14.5426 14.6613 14.4849C14.742 14.3811 14.742 14.3734 14.7536 8.10571C14.7574 4.65272 14.7536 1.77652 14.742 1.7073C14.7151 1.55349 14.5537 1.35739 14.3961 1.28817C14.3077 1.24972 13.9925 1.23819 13.0776 1.23434H11.8782V8.00189ZM1.51473 1.33432C1.45707 1.37661 1.3725 1.46121 1.33022 1.51889L1.24949 1.62271V8.00189V14.3811L1.33022 14.4849C1.3725 14.5426 1.45707 14.6272 1.51473 14.6695C1.61852 14.7502 1.64159 14.7502 6.13526 14.7617L10.6481 14.7694V8.00189V1.23434L6.13526 1.24203C1.64159 1.25357 1.61852 1.25357 1.51473 1.33432Z" fill="white" />
</svg>
