<svg
  width="16"
  height="16"
  viewBox="0 0 16 16"
  fill="none"
  xmlns="http://www.w3.org/2000/svg"
>
  <path d="M14.6037 0.0654001C15.2533 0.238434 15.7607 0.757535 15.9337 1.41506C16.0221 1.74575 16.0221 14.258 15.9337 14.5887C15.7607 15.2539 15.2495 15.7692 14.5883 15.9422C14.3884 15.9922 13.5888 15.9999 7.99577 15.9999C1.05729 15.9999 1.4417 16.0114 0.991944 15.7846C0.719018 15.6461 0.380744 15.3116 0.234671 15.0424C-0.0151913 14.5733 0.000184059 15.0117 0.000184059 8.00189C0.000184059 2.40713 0.00787272 1.60732 0.0578451 1.40737C0.230826 0.745999 0.745926 0.234589 1.41094 0.0615549C1.73769 -0.0230394 14.2846 -0.0191942 14.6037 0.0654001ZM1.51473 1.33432C1.45707 1.37661 1.3725 1.46121 1.33022 1.51888L1.24949 1.6227V8.00189V14.3811L1.33022 14.4849C1.3725 14.5426 1.45707 14.6272 1.51473 14.6695C1.61852 14.7502 1.64159 14.7502 6.13526 14.7617L10.6481 14.7694V8.00189V1.23434L6.13526 1.24203C1.64159 1.25357 1.61852 1.25357 1.51473 1.33432Z" fill="white" />
</svg>
